<svg width="158" height="31" viewBox="0 0 158 31" fill="none" xmlns="http://www.w3.org/2000/svg">
<g clip-path="url(#clip0_13_5)">
<path d="M53.542 26V4.76001H61.822C63.442 4.76001 64.852 5.01001 66.052 5.51001C67.272 5.99001 68.212 6.77001 68.872 7.85001C69.532 8.91001 69.862 10.33 69.862 12.11C69.862 13.77 69.492 15.16 68.752 16.28C68.032 17.4 67.042 18.24 65.782 18.8C64.522 19.34 63.092 19.61 61.492 19.61H57.832V26H53.542ZM57.832 15.77H61.432C62.712 15.77 63.722 15.47 64.462 14.87C65.222 14.25 65.602 13.32 65.602 12.08C65.602 10.98 65.282 10.15 64.642 9.59001C64.022 9.03001 63.022 8.75001 61.642 8.75001H57.832V15.77Z" fill="#1D1D1D"/>
<path d="M72.8418 25.9999V10.1899H76.6218L76.8918 12.0799C77.2918 11.4799 77.7418 11.0299 78.2418 10.7299C78.7418 10.4099 79.2618 10.1999 79.8018 10.0999C80.3418 9.97992 80.8918 9.91992 81.4518 9.91992C81.7118 9.91992 81.9518 9.92992 82.1718 9.94992C82.3918 9.94992 82.5518 9.94992 82.6518 9.94992V13.9999H81.6618C80.7218 13.9999 79.9018 14.1599 79.2018 14.4799C78.5018 14.7999 77.9618 15.2999 77.5818 15.9799C77.2218 16.6599 77.0418 17.5299 77.0418 18.5899V25.9999H72.8418Z" fill="#1D1D1D"/>
<path d="M84.9192 26V10.19H89.1192V26H84.9192ZM87.0192 8.59997C86.2392 8.59997 85.6092 8.36997 85.1292 7.90997C84.6492 7.42997 84.4092 6.81997 84.4092 6.07997C84.4092 5.29997 84.6592 4.66997 85.1592 4.18997C85.6592 3.70997 86.2892 3.46997 87.0492 3.46997C87.7492 3.46997 88.3492 3.70997 88.8492 4.18997C89.3692 4.64997 89.6292 5.26997 89.6292 6.04997C89.6292 6.80997 89.3792 7.42997 88.8792 7.90997C88.3992 8.36997 87.7792 8.59997 87.0192 8.59997Z" fill="#1D1D1D"/>
<path d="M92.749 25.9999V10.1899H96.679L96.889 12.0199C97.329 11.4799 97.829 11.0599 98.389 10.7599C98.969 10.4399 99.549 10.2199 100.129 10.0999C100.729 9.97992 101.269 9.91992 101.749 9.91992C103.269 9.91992 104.449 10.2499 105.289 10.9099C106.149 11.5699 106.759 12.4599 107.119 13.5799C107.499 14.6799 107.689 15.9099 107.689 17.2699V25.9999H103.489V17.8099C103.489 17.3299 103.449 16.8499 103.369 16.3699C103.289 15.8899 103.139 15.4499 102.919 15.0499C102.719 14.6499 102.429 14.3299 102.049 14.0899C101.669 13.8499 101.169 13.7299 100.549 13.7299C99.749 13.7299 99.079 13.9299 98.539 14.3299C97.999 14.7299 97.599 15.2699 97.339 15.9499C97.079 16.6299 96.949 17.3799 96.949 18.1999V25.9999H92.749Z" fill="#1D1D1D"/>
<path d="M118.383 26C117.063 26 115.953 25.84 115.053 25.52C114.173 25.2 113.503 24.66 113.043 23.9C112.603 23.12 112.383 22.06 112.383 20.72V13.94H110.043V10.19H112.383V5.95996H116.583V10.19H120.033V13.94H116.583V20.12C116.583 20.78 116.703 21.3 116.943 21.68C117.183 22.06 117.723 22.25 118.563 22.25H119.883V26H118.383Z" fill="#1D1D1D"/>
<path d="M123.069 26V4.76001H132.369C133.349 4.76001 134.239 4.86001 135.039 5.06001C135.859 5.24001 136.569 5.54001 137.169 5.96001C137.769 6.38001 138.229 6.94001 138.549 7.64001C138.889 8.34001 139.059 9.23001 139.059 10.31C139.059 11.19 138.859 12.01 138.459 12.77C138.059 13.53 137.469 14.11 136.689 14.51C137.729 14.85 138.549 15.44 139.149 16.28C139.749 17.1 140.049 18.19 140.049 19.55C140.049 20.77 139.819 21.8 139.359 22.64C138.899 23.46 138.269 24.12 137.469 24.62C136.669 25.12 135.739 25.48 134.679 25.7C133.619 25.9 132.489 26 131.289 26H123.069ZM127.359 22.04H131.799C132.339 22.04 132.839 22 133.299 21.92C133.779 21.84 134.199 21.71 134.559 21.53C134.919 21.33 135.199 21.06 135.399 20.72C135.619 20.38 135.729 19.96 135.729 19.46C135.729 19 135.639 18.62 135.459 18.32C135.299 18 135.059 17.74 134.739 17.54C134.439 17.34 134.079 17.2 133.659 17.12C133.259 17.04 132.809 17 132.309 17H127.359V22.04ZM127.359 13.43H131.289C131.829 13.43 132.319 13.38 132.759 13.28C133.199 13.18 133.569 13.02 133.869 12.8C134.169 12.58 134.399 12.31 134.559 11.99C134.719 11.65 134.799 11.26 134.799 10.82C134.819 10.22 134.689 9.78001 134.409 9.50001C134.129 9.20001 133.749 9.00001 133.269 8.90001C132.789 8.78001 132.249 8.72001 131.649 8.72001H127.359V13.43Z" fill="#1D1D1D"/>
<path d="M150.332 26.2099C148.672 26.2099 147.262 25.8799 146.102 25.2199C144.942 24.5599 144.052 23.6299 143.432 22.4299C142.812 21.2099 142.502 19.7899 142.502 18.1699C142.502 16.5299 142.822 15.0999 143.462 13.8799C144.102 12.6399 145.002 11.6699 146.162 10.9699C147.342 10.2699 148.732 9.91992 150.332 9.91992C151.532 9.91992 152.582 10.1199 153.482 10.5199C154.402 10.9199 155.172 11.4799 155.792 12.1999C156.432 12.9199 156.902 13.7599 157.202 14.7199C157.522 15.6599 157.672 16.6799 157.652 17.7799C157.652 18.0599 157.642 18.3299 157.622 18.5899C157.602 18.8499 157.562 19.1099 157.502 19.3699H146.672C146.732 19.9699 146.902 20.5199 147.182 21.0199C147.462 21.5199 147.852 21.9199 148.352 22.2199C148.872 22.4999 149.512 22.6399 150.272 22.6399C150.772 22.6399 151.232 22.5899 151.652 22.4899C152.072 22.3699 152.432 22.1899 152.732 21.9499C153.032 21.7099 153.242 21.4299 153.362 21.1099H157.502C157.242 22.2899 156.752 23.2599 156.032 24.0199C155.332 24.7799 154.482 25.3399 153.482 25.6999C152.482 26.0399 151.432 26.2099 150.332 26.2099ZM146.762 16.4299H153.632C153.612 15.8899 153.472 15.3899 153.212 14.9299C152.972 14.4499 152.602 14.0699 152.102 13.7899C151.622 13.4899 151.002 13.3399 150.242 13.3399C149.482 13.3399 148.842 13.4899 148.322 13.7899C147.822 14.0899 147.442 14.4799 147.182 14.9599C146.942 15.4199 146.802 15.9099 146.762 16.4299Z" fill="#1D1D1D"/>
<path d="M30.6682 0L46.0002 15.4947L30.667 30.9906L15.335 15.4959L30.6682 0Z" fill="url(#paint0_linear_13_5)"/>
<path d="M9.91086 15.5027L23.1104 2.16374C20.8286 0.801538 18.1759 0.00537109 15.3329 0.00537109C6.86601 0.00537109 0 6.94423 0 15.5027C0 24.0612 6.86601 31.0001 15.3329 31.0001C18.1754 31.0001 20.8286 30.2034 23.1104 28.8412L9.91086 15.5027Z" fill="#D225FA"/>
</g>
<defs>
<linearGradient id="paint0_linear_13_5" x1="46.0002" y1="15.4953" x2="15.335" y2="15.4953" gradientUnits="userSpaceOnUse">
<stop stop-color="#00DBDE"/>
<stop offset="1" stop-color="#5137FF"/>
</linearGradient>
<clipPath id="clip0_13_5">
<rect width="158" height="31" fill="white"/>
</clipPath>
</defs>
</svg>
